HIERARCHY
ROOT root
{
  OFFSET 0 98.6856 0
  CHANNELS 6 Xposition Yposition Zposition Zrotation Xrotation Yrotation
  JOINT torso_1
  {
    OFFSET 0 5.37224 -1.21793
    CHANNELS 6 Xposition Yposition Zposition Zrotation Xrotation Yrotation
    JOINT torso_2
    {
      OFFSET 0 5.94127 1.13336
      CHANNELS 6 Xposition Yposition Zposition Zrotation Xrotation Yrotation
      JOINT torso_3
      {
        OFFSET -1.08535e-17 6.33601 0.121658
        CHANNELS 6 Xposition Yposition Zposition Zrotation Xrotation Yrotation
        JOINT torso_4
        {
          OFFSET -1.16841e-17 6.88189 -0.46916
          CHANNELS 6 Xposition Yposition Zposition Zrotation Xrotation Yrotation
          JOINT torso_5
          {
            OFFSET -2.08699e-17 8.0451 -1.59297
            CHANNELS 6 Xposition Yposition Zposition Zrotation Xrotation Yrotation
            JOINT torso_6
            {
              OFFSET -2.67949e-17 10.0463 -0.967353
              CHANNELS 6 Xposition Yposition Zposition Zrotation Xrotation Yrotation
              JOINT torso_7
              {
                OFFSET -3.07187e-17 11.1612 1.66806
                CHANNELS 6 Xposition Yposition Zposition Zrotation Xrotation Yrotation
                JOINT neck_1
                {
                  OFFSET -1.36661e-17 5.06312 0.756688
                  CHANNELS 6 Xposition Yposition Zposition Zrotation Xrotation Yrotation
                  JOINT neck_2
                  {
                    OFFSET -1.91632e-17 5.09976 0.446172
                    CHANNELS 6 Xposition Yposition Zposition Zrotation Xrotation Yrotation
                    JOINT head
                    {
                      OFFSET -2.12574e-17 5.10962 0.809285
                      CHANNELS 6 Xposition Yposition Zposition Zrotation Xrotation Yrotation
                      End Site
                      {
                        OFFSET 0 0.1 0
                      }
                    }
                  }
                }
                JOINT l_shoulder
                {
                  OFFSET 1.30426 -8.04703 7.96922
                  CHANNELS 6 Xposition Yposition Zposition Zrotation Xrotation Yrotation
                  JOINT l_up_arm
                  {
                    OFFSET 13.7035 3.43734 -3.45766
                    CHANNELS 6 Xposition Yposition Zposition Zrotation Xrotation Yrotation
                    JOINT l_low_arm
                    {
                      OFFSET 30.8964 0.0632652 0.14496
                      CHANNELS 6 Xposition Yposition Zposition Zrotation Xrotation Yrotation
                      JOINT l_hand
                      {
                        OFFSET 25.6348 0.0524902 0.120274
                        CHANNELS 6 Xposition Yposition Zposition Zrotation Xrotation Yrotation
                        End Site
                        {
                          OFFSET 0.1 0 0
                        }
                      }
                    }
                  }
                }
                JOINT r_shoulder
                {
                  OFFSET -1.30426 -8.04702 7.96912
                  CHANNELS 6 Xposition Yposition Zposition Zrotation Xrotation Yrotation
                  JOINT r_up_arm
                  {
                    OFFSET -13.7035 3.43734 -3.45766
                    CHANNELS 6 Xposition Yposition Zposition Zrotation Xrotation Yrotation
                    JOINT r_low_arm
                    {
                      OFFSET -30.8964 0.0632652 0.14496
                      CHANNELS 6 Xposition Yposition Zposition Zrotation Xrotation Yrotation
                      JOINT r_hand
                      {
                        OFFSET -25.6348 0.0524901 0.120274
                        CHANNELS 6 Xposition Yposition Zposition Zrotation Xrotation Yrotation
                        End Site
                        {
                          OFFSET -0.1 0 0
                        }
                      }
                    }
                  }
                }
              }
            }
          }
        }
      }
    }
  }
  JOINT l_up_leg
  {
    OFFSET 9.77065 -4.44866 2.1502
    CHANNELS 6 Xposition Yposition Zposition Zrotation Xrotation Yrotation
    JOINT l_low_leg
    {
      OFFSET -0.901622 -41.0132 -0.693059
      CHANNELS 6 Xposition Yposition Zposition Zrotation Xrotation Yrotation
      JOINT l_foot
      {
        OFFSET -2.46068 -42.7371 -6.39839
        CHANNELS 6 Xposition Yposition Zposition Zrotation Xrotation Yrotation
        JOINT l_toes
        {
          OFFSET 0.82413 -10.4558 13.2182
          CHANNELS 6 Xposition Yposition Zposition Zrotation Xrotation Yrotation
          End Site
          {
            OFFSET 0 0 0.1
          }
        }
      }
    }
  }
  JOINT r_up_leg
  {
    OFFSET -9.77065 -4.44866 2.1502
    CHANNELS 6 Xposition Yposition Zposition Zrotation Xrotation Yrotation
    JOINT r_low_leg
    {
      OFFSET 0.901622 -41.0132 -0.693059
      CHANNELS 6 Xposition Yposition Zposition Zrotation Xrotation Yrotation
      JOINT r_foot
      {
        OFFSET 2.46068 -42.7371 -6.39839
        CHANNELS 6 Xposition Yposition Zposition Zrotation Xrotation Yrotation
        JOINT r_toes
        {
          OFFSET -0.82413 -10.4558 13.2182
          CHANNELS 6 Xposition Yposition Zposition Zrotation Xrotation Yrotation
          End Site
          {
            OFFSET 0 0 0.1
          }
        }
      }
    }
  }
}
MOTION
Frames: 8
Frame Time: 0.02
0 98.6856 0 -0 0 -0 0 5.37224 -1.21793 -0 0 -0 0 5.94127 1.13336 -0 0 -0 -1.08535e-17 6.33601 0.121658 -0 0 -0 -1.16841e-17 6.88189 -0.46916 -0 0 -0 -2.08699e-17 8.0451 -1.59297 -0 0 -0 -2.67949e-17 10.0463 -0.967353 -0 0 -0 -3.07187e-17 11.1612 1.66806 -0 0 -0 -1.36661e-17 5.06312 0.756688 -0 0 -0 -1.91632e-17 5.09976 0.446172 -0 0 -0 -2.12574e-17 5.10962 0.809285 -0 0 -0 1.30426 -8.04703 7.96922 -0 0 -0 13.7035 3.43734 -3.45766 -0 0 -0 30.8964 0.0632652 0.14496 -0 0 -0 25.6348 0.0524902 0.120274 -0 0 -0 -1.30426 -8.04702 7.96912 -0 0 -0 -13.7035 3.43734 -3.45766 -0 0 -0 -30.8964 0.0632652 0.14496 -0 0 -0 -25.6348 0.0524901 0.120274 -0 0 -0 9.77065 -4.44866 2.1502 -0 0 -0 -0.901622 -41.0132 -0.693059 -0 0 -0 -2.46068 -42.7371 -6.39839 -0 0 -0 0.82413 -10.4558 13.2182 -0 0 -0 -9.77065 -4.44866 2.1502 -0 0 -0 0.901622 -41.0132 -0.693059 -0 0 -0 2.46068 -42.7371 -6.39839 -0 0 -0 -0.82413 -10.4558 13.2182 -0 0 -0 
-130.722 83.7947 -124.702 27.4351 21.7109 -37.5911 0 5.37224 -1.21793 -4.58699 1.95266 2.15068 0 5.94127 1.13336 -3.52279 2.44769 1.7235 -1.08535e-17 6.33601 0.121658 -2.59011 5.18928 1.99719 -1.16841e-17 6.88189 -0.46916 -2.16385 9.6495 1.95636 -2.08699e-17 8.0451 -1.59297 -1.39997 12.3307 2.50878 -2.67949e-17 10.0463 -0.967353 0.0358373 14.2347 2.91525 -3.07187e-17 11.1612 1.66806 0.0639429 -0.0319609 0.0478975 -1.36661e-17 5.06312 0.756688 -0.0458245 15.4256 -4.05795 -1.91632e-17 5.09976 0.446172 3.04365 -0.308298 -1.43864 -2.12574e-17 5.10962 0.809285 -10.3826 37.1426 17.0097 1.30426 -8.04703 7.96922 15.8389 -8.18257 5.28592 13.7035 3.43734 -3.45766 -87.8637 33.4221 -13.7291 30.8964 0.0632652 0.14496 9.97229 -5.28661 -56.3639 25.6348 0.0524902 0.120274 -3.54959 -44.6907 -2.36873 -1.30426 -8.04702 7.96912 -10.5654 -3.48782 -7.524 -13.7035 3.43734 -3.45766 100.516 48.8654 -4.43166 -30.8964 0.0632652 0.14496 -9.20247 -4.26746 50.2772 -25.6348 0.0524901 0.120274 35.5942 -60.3884 35.4898 9.77065 -4.44866 2.1502 -23.2325 -67.1433 -67.0131 -0.901622 -41.0132 -0.693059 -13.7624 42.3842 4.57411 -2.46068 -42.7371 -6.39839 -5.84039 -10.7805 15.005 0.82413 -10.4558 13.2182 3.62782e-15 -6.4605e-16 -1.36664e-16 -9.77065 -4.44866 2.1502 25.982 -60.4318 43.3705 0.901622 -41.0132 -0.693059 21.1949 54.4709 -9.94827 2.46068 -42.7371 -6.39839 -5.35761 -19.3067 -15.3742 -0.82413 -10.4558 13.2182 -2.18663e-15 -4.96962e-16 -1.26725e-14 
-130.461 83.9258 -124.353 27.7725 21.6014 -37.8604 0 5.37224 -1.21793 -4.53478 1.78942 2.07957 0 5.94127 1.13336 -3.47279 2.33062 1.67191 -1.08535e-17 6.33601 0.121658 -2.54661 5.16513 1.94933 -1.16841e-17 6.88189 -0.46916 -2.12249 9.75466 1.91175 -2.08699e-17 8.0451 -1.59297 -1.37273 12.5227 2.4604 -2.67949e-17 10.0463 -0.967353 0.053555 14.4623 2.86349 -3.07187e-17 11.1612 1.66806 0.0640657 -0.0349373 0.0477214 -1.36661e-17 5.06312 0.756688 -0.0240598 15.269 -4.05426 -1.91632e-17 5.09976 0.446172 3.07814 -0.408636 -1.44474 -2.12574e-17 5.10962 0.809285 -10.4839 37.2274 16.906 1.30426 -8.04703 7.96922 15.7827 -8.26913 5.36522 13.7035 3.43734 -3.45766 -88.3614 33.2249 -13.1848 30.8964 0.0632652 0.14496 10.0981 -5.47661 -57.4491 25.6348 0.0524902 0.120274 -3.78857 -45.9629 -2.44204 -1.30426 -8.04702 7.96912 -10.5087 -3.58554 -7.64253 -13.7035 3.43734 -3.45766 101.033 49.0868 -4.76335 -30.8964 0.0632652 0.14496 -9.20529 -4.27081 50.298 -25.6348 0.0524901 0.120274 37.7468 -61.5557 37.0754 9.77065 -4.44866 2.1502 -23.1943 -67.1785 -66.4925 -0.901622 -41.0132 -0.693059 -13.7955 42.4529 4.5952 -2.46068 -42.7371 -6.39839 -6.11991 -10.7617 15.0016 0.82413 -10.4558 13.2182 1.63997e-15 -7.20594e-16 -4.96962e-17 -9.77065 -4.44866 2.1502 25.4612 -60.2414 43.2905 0.901622 -41.0132 -0.693059 20.9596 54.1747 -9.76263 2.46068 -42.7371 -6.39839 -5.15485 -19.5797 -15.3275 -0.82413 -10.4558 13.2182 1.1281e-14 -1.86361e-15 -1.4064e-14 
-130.13 84.0814 -124.009 28.0921 21.5109 -38.1547 0 5.37224 -1.21793 -4.50652 1.67063 1.99413 0 5.94127 1.13336 -3.44021 2.25158 1.59807 -1.08535e-17 6.33601 0.121658 -2.51384 5.15334 1.87756 -1.16841e-17 6.88189 -0.46916 -2.08272 9.83624 1.84161 -2.08699e-17 8.0451 -1.59297 -1.34607 12.6654 2.38608 -2.67949e-17 10.0463 -0.967353 0.0649286 14.6302 2.78461 -3.07187e-17 11.1612 1.66806 0.0634858 -0.0369472 0.0469825 -1.36661e-17 5.06312 0.756688 -0.00228352 15.1348 -4.01296 -1.91632e-17 5.09976 0.446172 3.1367 -0.539523 -1.43591 -2.12574e-17 5.10962 0.809285 -10.824 37.3409 16.9989 1.30426 -8.04703 7.96922 15.6862 -8.30266 5.42813 13.7035 3.43734 -3.45766 -88.719 32.8361 -12.5525 30.8964 0.0632652 0.14496 10.2172 -5.66402 -58.5066 25.6348 0.0524902 0.120274 -4.02788 -47.5713 -2.46036 -1.30426 -8.04702 7.96912 -10.5098 -3.64674 -7.81438 -13.7035 3.43734 -3.45766 101.696 49.4668 -5.11728 -30.8964 0.0632652 0.14496 -9.23585 -4.30727 50.5248 -25.6348 0.0524901 0.120274 39.4078 -62.4574 38.3259 9.77065 -4.44866 2.1502 -23.025 -67.2158 -65.8224 -0.901622 -41.0132 -0.693059 -13.7975 42.457 4.59649 -2.46068 -42.7371 -6.39839 -6.35431 -10.7117 14.9848 0.82413 -10.4558 13.2182 8.44835e-16 -7.57867e-16 -2.48481e-17 -9.77065 -4.44866 2.1502 24.9984 -60.0381 43.2779 0.901622 -41.0132 -0.693059 20.6748 53.8099 -9.53901 2.46068 -42.7371 -6.39839 -4.96432 -19.8239 -15.2834 -0.82413 -10.4558 13.2182 -1.78906e-15 -5.09386e-16 -1.26974e-14 
-129.746 84.2527 -123.669 28.455 21.4015 -38.4775 0 5.37224 -1.21793 -4.50678 1.5716 1.91691 0 5.94127 1.13336 -3.427 2.17662 1.5262 -1.08535e-17 6.33601 0.121658 -2.4934 5.13834 1.80603 -1.16841e-17 6.88189 -0.46916 -2.04962 9.9105 1.76886 -2.08699e-17 8.0451 -1.59297 -1.32301 12.7976 2.30903 -2.67949e-17 10.0463 -0.967353 0.0785401 14.7843 2.70481 -3.07187e-17 11.1612 1.66806 0.0629425 -0.0391463 0.046059 -1.36661e-17 5.06312 0.756688 0.0331546 15.0609 -3.9803 -1.91632e-17 5.09976 0.446172 3.21099 -0.701572 -1.42612 -2.12574e-17 5.10962 0.809285 -11.2385 37.4223 17.1908 1.30426 -8.04703 7.96922 15.5501 -8.32779 5.46705 13.7035 3.43734 -3.45766 -89.0435 32.2744 -11.838 30.8964 0.0632652 0.14496 10.319 -5.83049 -59.4358 25.6348 0.0524902 0.120274 -4.3237 -49.4213 -2.54721 -1.30426 -8.04702 7.96912 -10.4868 -3.69803 -8.02503 -13.7035 3.43734 -3.45766 102.485 49.9324 -5.65399 -30.8964 0.0632652 0.14496 -9.35052 -4.44676 51.3856 -25.6348 0.0524901 0.120274 40.7781 -63.4555 39.4286 9.77065 -4.44866 2.1502 -23.2452 -67.1408 -65.8539 -0.901622 -41.0132 -0.693059 -13.7708 42.4017 4.57949 -2.46068 -42.7371 -6.39839 -6.49073 -10.5763 15.0187 0.82413 -10.4558 13.2182 -4.32357e-15 -9.81499e-16 1.98785e-16 -9.77065 -4.44866 2.1502 24.62 -59.9641 43.389 0.901622 -41.0132 -0.693059 20.4851 53.5629 -9.39066 2.46068 -42.7371 -6.39839 -4.65078 -19.8234 -15.2043 -0.82413 -10.4558 13.2182 9.69075e-15 -1.78906e-15 -1.39895e-14 
-129.256 84.4489 -123.314 28.839 21.2635 -38.8122 0 5.37224 -1.21793 -4.52489 1.50867 1.85918 0 5.94127 1.13336 -3.43161 2.12375 1.46935 -1.08535e-17 6.33601 0.121658 -2.48896 5.12997 1.74778 -1.16841e-17 6.88189 -0.46916 -2.03031 9.97201 1.70804 -2.08699e-17 8.0451 -1.59297 -1.3092 12.9038 2.24538 -2.67949e-17 10.0463 -0.967353 0.091673 14.9018 2.64154 -3.07187e-17 11.1612 1.66806 0.062689 -0.0413844 0.0451548 -1.36661e-17 5.06312 0.756688 0.0809986 15.0224 -4.01564 -1.91632e-17 5.09976 0.446172 3.27742 -0.891704 -1.44549 -2.12574e-17 5.10962 0.809285 -11.6548 37.4861 17.5063 1.30426 -8.04703 7.96922 15.365 -8.33779 5.46341 13.7035 3.43734 -3.45766 -89.1159 31.7638 -11.3198 30.8964 0.0632652 0.14496 10.3986 -5.96493 -60.1797 25.6348 0.0524902 0.120274 -4.70322 -51.4046 -2.64936 -1.30426 -8.04702 7.96912 -10.4219 -3.73693 -8.18407 -13.7035 3.43734 -3.45766 103.08 50.1889 -6.09166 -30.8964 0.0632652 0.14496 -9.50393 -4.64025 52.5624 -25.6348 0.0524901 0.120274 42.0548 -64.6506 40.3325 9.77065 -4.44866 2.1502 -23.6295 -66.9345 -66.2622 -0.901622 -41.0132 -0.693059 -13.6824 42.2177 4.52328 -2.46068 -42.7371 -6.39839 -6.51928 -10.3252 15.08 0.82413 -10.4558 13.2182 -4.32357e-15 -9.81499e-16 1.98785e-16 -9.77065 -4.44866 2.1502 24.2952 -59.9738 43.5761 0.901622 -41.0132 -0.693059 20.3525 53.3885 -9.28736 2.46068 -42.7371 -6.39839 -4.26164 -19.6137 -15.1039 -0.82413 -10.4558 13.2182 7.35503e-15 -9.06955e-16 -1.30825e-14 
-128.776 84.6734 -122.965 29.2207 21.1542 -39.1601 0 5.37224 -1.21793 -4.53915 1.47487 1.80777 0 5.94127 1.13336 -3.43804 2.0982 1.4205 -1.08535e-17 6.33601 0.121658 -2.48865 5.1316 1.69754 -1.16841e-17 6.88189 -0.46916 -2.01565 10.0179 1.65616 -2.08699e-17 8.0451 -1.59297 -1.29674 12.9786 2.19163 -2.67949e-17 10.0463 -0.967353 0.106575 14.9785 2.5875 -3.07187e-17 11.1612 1.66806 0.0627113 -0.0432098 0.0443045 -1.36661e-17 5.06312 0.756688 0.12659 14.9582 -4.06152 -1.91632e-17 5.09976 0.446172 3.36811 -1.06427 -1.47071 -2.12574e-17 5.10962 0.809285 -12.0601 37.53 17.8313 1.30426 -8.04703 7.96922 15.2048 -8.33527 5.4392 13.7035 3.43734 -3.45766 -88.9492 31.4075 -10.9942 30.8964 0.0632652 0.14496 10.4595 -6.07065 -60.7608 25.6348 0.0524902 0.120274 -5.2172 -53.351 -2.90858 -1.30426 -8.04702 7.96912 -10.3987 -3.76696 -8.30295 -13.7035 3.43734 -3.45766 103.55 50.2855 -6.3048 -30.8964 0.0632652 0.14496 -9.60807 -4.77636 53.379 -25.6348 0.0524901 0.120274 42.7278 -65.585 40.6906 9.77065 -4.44866 2.1502 -23.7198 -66.7441 -66.3141 -0.901622 -41.0132 -0.693059 -13.5308 41.8994 4.4274 -2.46068 -42.7371 -6.39839 -6.60935 -9.96114 15.1288 0.82413 -10.4558 13.2182 -4.72114e-15 -1.00635e-15 2.23633e-16 -9.77065 -4.44866 2.1502 23.9376 -59.9431 43.6804 0.901622 -41.0132 -0.693059 20.134 53.0977 -9.11772 2.46068 -42.7371 -6.39839 -3.94331 -19.4085 -15.0189 -0.82413 -10.4558 13.2182 7.35503e-15 -9.06955e-16 -1.30825e-14 
-128.323 84.9193 -122.579 29.5883 21.0833 -39.5074 0 5.37224 -1.21793 -4.54063 1.4463 1.73689 0 5.94127 1.13336 -3.43272 2.08107 1.35553 -1.08535e-17 6.33601 0.121658 -2.47844 5.13477 1.63048 -1.16841e-17 6.88189 -0.46916 -1.9909 10.0533 1.58795 -2.08699e-17 8.0451 -1.59297 -1.27867 13.0366 2.119 -2.67949e-17 10.0463 -0.967353 0.115022 15.0426 2.51233 -3.07187e-17 11.1612 1.66806 0.0623224 -0.0440895 0.0431501 -1.36661e-17 5.06312 0.756688 0.152716 14.9602 -3.96693 -1.91632e-17 5.09976 0.446172 3.43713 -1.17409 -1.43229 -2.12574e-17 5.10962 0.809285 -12.416 37.4286 18.0068 1.30426 -8.04703 7.96922 15.119 -8.32749 5.45818 13.7035 3.43734 -3.45766 -88.7828 30.987 -10.7111 30.8964 0.0632652 0.14496 10.5037 -6.14885 -61.1884 25.6348 0.0524902 0.120274 -5.86601 -54.647 -3.28564 -1.30426 -8.04702 7.96912 -10.5349 -3.79733 -8.50575 -13.7035 3.43734 -3.45766 104.066 50.5874 -6.39333 -30.8964 0.0632652 0.14496 -9.66937 -4.85839 53.8668 -25.6348 0.0524901 0.120274 44.7323 -66.6019 42.6551 9.77065 -4.44866 2.1502 -23.4203 -66.6654 -65.7506 -0.901622 -41.0132 -0.693059 -13.3693 41.5567 4.32603 -2.46068 -42.7371 -6.39839 -6.83991 -9.62661 15.1432 0.82413 -10.4558 13.2182 -2.73329e-15 -9.19379e-16 1.36664e-16 -9.77065 -4.44866 2.1502 23.4925 -59.7805 43.704 0.901622 -41.0132 -0.693059 19.7831 52.6214 -8.84673 2.46068 -42.7371 -6.39839 -3.75315 -19.3838 -14.9705 -0.82413 -10.4558 13.2182 -2.5842e-15 -4.84538e-16 -1.26601e-14 
